<svg viewBox="-1 -1 2 2" xmlns="http://www.w3.org/2000/svg">
    <path d="M-3.0062757838678067e-15,0.29999999999999993 L-8.673617379884035e-18,0.3 L2.9976021664877534e-15,0.29999999999999993 Z M-0.07666666666666638,0.2899999999999999 L-0.06999999999999997,0.2916949152542372 L-0.05999999999999995,0.2938983050847457 L-0.04999999999999994,0.2957627118644067 L-0.03999999999999993,0.2972881355932203 L-0.030000000000000034,0.2984745762711864 L-0.020000000000000025,0.2993220338983051 L-0.010000000000000018,0.29983050847457626 L-3.0062757838678067e-15,0.29999999999999993 L0.01,0.29983050847457626 L0.02000000000000001,0.2993220338983051 L0.03000000000000002,0.2984745762711864 L0.04000000000000003,0.2972881355932203 L0.05000000000000004,0.2957627118644067 L0.060000000000000046,0.2938983050847457 L0.07000000000000005,0.29169491525423713 L0.07666666666666637,0.2899999999999999 L0.08000000000000006,0.2891228070175438 L0.09000000000000007,0.2861403508771929 L0.10000000000000007,0.2828070175438596 L0.10761904761904753,0.28 L0.11000000000000008,0.27909090909090906 L0.12000000000000009,0.2749090909090909 L0.13000000000000012,0.2703636363636363 L0.13074074074074069,0.27 L0.14000000000000012,0.26528301886792444 L0.14965517241379306,0.26 L0.15000000000000013,0.25980392156862736 L0.16000000000000014,0.2537254901960785 L0.16575757575757574,0.25 L0.16999999999999993,0.2471428571428572 L0.17999999999999994,0.24000000000000005 L0.18,0.24 L0.18999999999999995,0.2321276595744681 L0.19256410256410256,0.22999999999999998 L0.19999999999999996,0.22355555555555556 L0.20390243902439023,0.21999999999999997 L0.20999999999999996,0.21418604651162793 L0.21418604651162793,0.20999999999999996 L0.21999999999999997,0.20390243902439023 L0.22355555555555556,0.19999999999999996 L0.22999999999999998,0.19256410256410256 L0.2321276595744681,0.18999999999999995 L0.24,0.18 L0.24000000000000002,0.17999999999999994 L0.2471428571428572,0.16999999999999993 L0.25,0.1657575757575757 L0.2537254901960784,0.15999999999999992 L0.2598039215686274,0.15000000000000002 L0.26,0.14965517241379306 L0.2652830188679245,0.14 L0.27,0.13074074074074069 L0.27036363636363636,0.13 L0.2749090909090909,0.12000000000000001 L0.27909090909090906,0.11 L0.28,0.10761904761904753 L0.2828070175438597,0.09999999999999999 L0.286140350877193,0.08999999999999998 L0.28912280701754384,0.07999999999999997 L0.29000000000000004,0.07666666666666638 L0.2916949152542373,0.06999999999999997 L0.29389830508474574,0.05999999999999995 L0.2957627118644068,0.04999999999999994 L0.2972881355932203,0.03999999999999993 L0.2984745762711864,0.030000000000000034 L0.29932203389830503,0.020000000000000025 L0.29983050847457626,0.010000000000000018 L0.3,8.673617379884035e-18 L0.29983050847457626,-0.01 L0.29932203389830503,-0.02000000000000001 L0.2984745762711864,-0.03000000000000002 L0.2972881355932203,-0.04000000000000003 L0.2957627118644067,-0.05000000000000004 L0.29389830508474574,-0.060000000000000046 L0.29169491525423724,-0.07000000000000005 L0.29000000000000004,-0.07666666666666637 L0.2891228070175438,-0.08000000000000006 L0.2861403508771929,-0.09000000000000007 L0.2828070175438596,-0.10000000000000007 L0.28,-0.10761904761904753 L0.27909090909090906,-0.11000000000000008 L0.2749090909090909,-0.12000000000000009 L0.2703636363636363,-0.13000000000000012 L0.26528301886792444,-0.14000000000000012 L0.26,-0.14965517241379306 L0.26,-0.14965517241379306 L0.2537254901960785,-0.16000000000000014 L0.25,-0.16575757575757574 L0.2471428571428572,-0.16999999999999993 L0.24000000000000002,-0.17999999999999994 L0.2321276595744681,-0.18999999999999995 L0.22999999999999998,-0.19256410256410256 L0.22355555555555556,-0.19999999999999996 L0.21999999999999997,-0.20390243902439023 L0.21418604651162793,-0.20999999999999996 L0.20999999999999996,-0.21418604651162793 L0.20390243902439023,-0.21999999999999997 L0.19999999999999996,-0.22355555555555556 L0.19256410256410256,-0.22999999999999998 L0.18999999999999995,-0.2321276595744681 L0.18,-0.24 L0.16999999999999993,-0.2471428571428572 L0.16575757575757574,-0.25 L0.15999999999999992,-0.2537254901960785 L0.15000000000000013,-0.25980392156862736 L0.15000000000000013,-0.25980392156862736 L0.14000000000000012,-0.26528301886792444 L0.13074074074074069,-0.27 L0.1200000000000001,-0.2749090909090909 L0.1100000000000001,-0.27909090909090906 L0.10761904761904753,-0.28 L0.10000000000000009,-0.2828070175438596 L0.09000000000000008,-0.2861403508771929 L0.08000000000000007,-0.2891228070175438 L0.07666666666666637,-0.29000000000000004 L0.07000000000000006,-0.29169491525423724 L0.06000000000000005,-0.29389830508474574 L0.050000000000000044,-0.2957627118644067 L0.040000000000000036,-0.2972881355932203 L0.030000000000000027,-0.2984745762711864 L0.020000000000000018,-0.29932203389830503 L0.010000000000000009,-0.29983050847457626 L0,-0.3 L-0.010000000000000009,-0.29983050847457626 L-0.020000000000000018,-0.29932203389830503 L-0.030000000000000027,-0.2984745762711864 L-0.040000000000000036,-0.2972881355932203 L-0.04999999999999993,-0.2957627118644068 L-0.05999999999999994,-0.29389830508474574 L-0.06999999999999995,-0.2916949152542373 L-0.07666666666666638,-0.29000000000000004 L-0.07999999999999996,-0.28912280701754384 L-0.08999999999999997,-0.286140350877193 L-0.09999999999999998,-0.2828070175438597 L-0.10761904761904753,-0.28 L-0.10999999999999999,-0.27909090909090906 L-0.12,-0.2749090909090909 L-0.13,-0.27036363636363636 L-0.14,-0.2652830188679245 L-0.14965517241379306,-0.26 L-0.16000000000000003,-0.2537254901960784 L-0.1657575757575757,-0.25 L-0.16999999999999993,-0.2471428571428572 L-0.17999999999999994,-0.24000000000000002 L-0.18999999999999995,-0.2321276595744681 L-0.19256410256410256,-0.22999999999999998 L-0.19999999999999996,-0.22355555555555556 L-0.20390243902439023,-0.21999999999999997 L-0.20999999999999996,-0.21418604651162793 L-0.21418604651162793,-0.20999999999999996 L-0.21999999999999997,-0.20390243902439023 L-0.22355555555555556,-0.19999999999999996 L-0.22999999999999998,-0.19256410256410256 L-0.2321276595744681,-0.18999999999999995 L-0.24,-0.18 L-0.2471428571428572,-0.16999999999999993 L-0.25,-0.16575757575757574 L-0.2537254901960785,-0.15999999999999992 L-0.25980392156862736,-0.15000000000000013 L-0.26528301886792444,-0.14000000000000012 L-0.27,-0.13074074074074069 L-0.2749090909090909,-0.1200000000000001 L-0.27909090909090906,-0.1100000000000001 L-0.28,-0.10761904761904753 L-0.2828070175438596,-0.10000000000000009 L-0.2861403508771929,-0.09000000000000008 L-0.2891228070175438,-0.08000000000000007 L-0.29000000000000004,-0.07666666666666637 L-0.29169491525423713,-0.07000000000000006 L-0.2938983050847457,-0.06000000000000005 L-0.2957627118644067,-0.050000000000000044 L-0.2972881355932203,-0.040000000000000036 L-0.2984745762711864,-0.030000000000000027 L-0.2993220338983051,-0.020000000000000018 L-0.29983050847457626,-0.010000000000000009 L-0.29999999999999993,-2.9976021664877534e-15 L-0.29999999999999993,3.0062757838678067e-15 L-0.29983050847457626,0.010000000000000009 L-0.2993220338983051,0.020000000000000018 L-0.2984745762711864,0.030000000000000027 L-0.2972881355932203,0.040000000000000036 L-0.2957627118644067,0.04999999999999993 L-0.2938983050847457,0.05999999999999994 L-0.2916949152542372,0.06999999999999995 L-0.2899999999999999,0.07666666666666638 L-0.28912280701754384,0.07999999999999996 L-0.286140350877193,0.08999999999999997 L-0.2828070175438596,0.09999999999999998 L-0.28,0.10761904761904753 L-0.27909090909090906,0.10999999999999999 L-0.2749090909090909,0.12 L-0.27036363636363636,0.13 L-0.27,0.13074074074074069 L-0.2652830188679245,0.14 L-0.26,0.14965517241379306 L-0.2537254901960784,0.16000000000000003 L-0.25,0.1657575757575757 L-0.2471428571428572,0.16999999999999993 L-0.24000000000000005,0.17999999999999994 L-0.24,0.18 L-0.2321276595744681,0.18999999999999995 L-0.22999999999999998,0.19256410256410256 L-0.22355555555555556,0.19999999999999996 L-0.21999999999999997,0.20390243902439023 L-0.21418604651162793,0.20999999999999996 L-0.20999999999999996,0.21418604651162793 L-0.20390243902439023,0.21999999999999997 L-0.19999999999999996,0.22355555555555556 L-0.19256410256410256,0.22999999999999998 L-0.18999999999999995,0.2321276595744681 L-0.18,0.24 L-0.17999999999999994,0.24000000000000005 L-0.16999999999999993,0.2471428571428572 L-0.1657575757575757,0.25 L-0.15999999999999992,0.2537254901960784 L-0.15000000000000002,0.2598039215686274 L-0.14,0.2652830188679245 L-0.13074074074074069,0.27 L-0.13,0.27036363636363636 L-0.12000000000000001,0.2749090909090909 L-0.11,0.27909090909090906 L-0.10761904761904753,0.28 L-0.09999999999999999,0.2828070175438596 L-0.08999999999999998,0.286140350877193 L-0.07999999999999997,0.28912280701754384 L-0.07666666666666638,0.29000000000000004 Z M-0.15000000000000002,0.2598039215686274 L-0.14965517241379306,0.26 Z M-0.26,0.14965517241379306 L-0.2598039215686274,0.15000000000000002 Z M-0.3,0 L-0.29999999999999993,-2.9976021664877534e-15 Z M-0.2703636363636363,-0.13000000000000012 L-0.27,-0.13074074074074069 Z M0.27,-0.13074074074074069 L0.2703636363636363,-0.13000000000000012 Z M-0.26,-0.14965517241379306 L-0.25980392156862736,-0.15000000000000013 Z M-0.24000000000000005,-0.17999999999999994 L-0.24,-0.18 Z M0.24,-0.18 L0.24000000000000002,-0.17999999999999994 Z M-0.18,-0.24 L-0.17999999999999994,-0.24000000000000002 Z M0.17999999999999994,-0.24000000000000002 L0.18,-0.24 Z M-0.15000000000000002,-0.2598039215686274 L-0.14965517241379306,-0.26 Z M-0.13074074074074069,-0.27 L-0.13,-0.27036363636363636 Z M0.13000000000000012,-0.2703636363636363 L0.13074074074074069,-0.27 Z" fill="none" stroke="black" stroke-width="0.005"/>
</svg>