<svg viewBox="-1 -1 2 2" xmlns="http://www.w3.org/2000/svg">
    <path d="M-8.673617379884035e-18,0.6 L-8.673617379884035e-18,0.6 L0,0.6 Z M-0.05431818181818179,0.59 L-0.04999999999999994,0.5915966386554622 L-0.03999999999999993,0.5946218487394958 L-0.030000000000000034,0.5969747899159663 L-0.020000000000000025,0.5986554621848739 L-0.010000000000000018,0.5996638655462185 L-8.673617379884035e-18,0.6 L0.01,0.5996638655462185 L0.02000000000000001,0.5986554621848739 L0.03000000000000002,0.5969747899159663 L0.04000000000000003,0.5946218487394958 L0.05000000000000004,0.5915966386554621 L0.054318181818181765,0.59 L0.060000000000000046,0.5878632478632477 L0.07000000000000005,0.5834188034188033 L0.07666666666666637,0.58 L0.08000000000000006,0.5782608695652173 L0.09000000000000007,0.5723478260869564 L0.09355263157894719,0.5700000000000001 L0.10000000000000007,0.5656637168141592 L0.10761904761904753,0.56 L0.11000000000000008,0.5581981981981982 L0.119891304347826,0.55 L0.12000000000000009,0.5499082568807339 L0.13000000000000012,0.5407339449541283 L0.13074074074074069,0.54 L0.14000000000000012,0.5306542056074764 L0.14060344827586202,0.53 L0.14965517241379306,0.52 L0.15000000000000013,0.5196116504854367 L0.1579838709677421,0.51 L0.16000000000000014,0.5075247524752476 L0.16575757575757574,0.5 L0.16999999999999993,0.4943434343434344 L0.17307142857142857,0.49 L0.17999999999999994,0.48000000000000004 L0.18,0.48 L0.1864189189189189,0.47 L0.18999999999999995,0.46430107526881725 L0.19256410256410256,0.45999999999999996 L0.19839743589743591,0.44999999999999996 L0.19999999999999996,0.4471910112359551 L0.20390243902439023,0.43999999999999995 L0.20920731707317078,0.42999999999999994 L0.20999999999999996,0.42847058823529416 L0.21418604651162787,0.41999999999999993 L0.2190116279069767,0.41000000000000003 L0.21999999999999997,0.4079012345679012 L0.2235555555555555,0.4 L0.22794444444444437,0.39 L0.22999999999999998,0.3851948051948051 L0.23212765957446804,0.38 L0.23611702127659573,0.37 L0.24,0.36 L0.24,0.36 L0.24362244897959182,0.35 L0.2471428571428571,0.33999999999999997 L0.25,0.3316417910447761 L0.2505392156862745,0.32999999999999996 L0.25372549019607843,0.31999999999999995 L0.25681372549019604,0.30999999999999994 L0.2598039215686274,0.29999999999999993 L0.26,0.2993220338983049 L0.2625943396226415,0.2899999999999999 L0.2652830188679245,0.28 L0.26787735849056604,0.27 L0.27,0.261509433962264 L0.27036363636363636,0.26 L0.2726818181818182,0.25 L0.2749090909090909,0.24 L0.27704545454545454,0.22999999999999998 L0.27909090909090906,0.21999999999999997 L0.28,0.21534883720930215 L0.28100877192982454,0.20999999999999996 L0.2828070175438597,0.19999999999999996 L0.2845175438596491,0.18999999999999995 L0.286140350877193,0.17999999999999994 L0.2876754385964912,0.16999999999999993 L0.28912280701754384,0.15999999999999992 L0.29000000000000004,0.15354838709677374 L0.2904661016949152,0.15000000000000002 L0.29169491525423724,0.14 L0.29283898305084743,0.13 L0.29389830508474574,0.12000000000000001 L0.2948728813559322,0.11 L0.2957627118644068,0.09999999999999999 L0.29656779661016947,0.08999999999999998 L0.2972881355932203,0.07999999999999997 L0.29792372881355933,0.06999999999999997 L0.2984745762711864,0.05999999999999995 L0.2989406779661017,0.04999999999999994 L0.29932203389830503,0.03999999999999993 L0.2996186440677966,0.030000000000000034 L0.29983050847457626,0.020000000000000025 L0.29995762711864404,0.010000000000000018 L0.3,8.673617379884035e-18 L0.29995762711864404,-0.01 L0.29983050847457626,-0.02000000000000001 L0.2996186440677966,-0.03000000000000002 L0.29932203389830503,-0.04000000000000003 L0.2989406779661017,-0.05000000000000004 L0.2984745762711864,-0.060000000000000046 L0.2979237288135593,-0.07000000000000005 L0.2972881355932203,-0.08000000000000006 L0.29656779661016947,-0.09000000000000007 L0.2957627118644067,-0.10000000000000007 L0.29487288135593215,-0.11000000000000008 L0.29389830508474574,-0.12000000000000009 L0.29283898305084743,-0.13000000000000012 L0.29169491525423724,-0.14000000000000012 L0.2904661016949152,-0.15000000000000013 L0.29000000000000004,-0.15354838709677376 L0.28912280701754384,-0.16000000000000014 L0.2876754385964912,-0.16999999999999993 L0.286140350877193,-0.17999999999999994 L0.2845175438596491,-0.18999999999999995 L0.2828070175438597,-0.19999999999999996 L0.28100877192982454,-0.20999999999999996 L0.28,-0.21534883720930217 L0.27909090909090906,-0.21999999999999997 L0.27704545454545454,-0.22999999999999998 L0.2749090909090909,-0.24 L0.2726818181818182,-0.25 L0.27036363636363636,-0.26 L0.27,-0.261509433962264 L0.26787735849056604,-0.27 L0.2652830188679245,-0.28 L0.2625943396226415,-0.29000000000000004 L0.26,-0.29932203389830503 L0.26,-0.29932203389830503 L0.25681372549019604,-0.31000000000000005 L0.2537254901960784,-0.32000000000000006 L0.25053921568627446,-0.33000000000000007 L0.25,-0.3316417910447761 L0.2471428571428571,-0.3400000000000001 L0.2436224489795918,-0.3500000000000001 L0.24,-0.36 L0.24,-0.36 L0.23611702127659567,-0.3700000000000001 L0.23212765957446801,-0.3800000000000001 L0.22999999999999998,-0.38519480519480515 L0.22794444444444437,-0.3900000000000001 L0.22355555555555545,-0.40000000000000013 L0.21999999999999997,-0.4079012345679014 L0.21901162790697676,-0.41000000000000014 L0.21418604651162793,-0.41999999999999993 L0.20999999999999996,-0.42847058823529416 L0.20920731707317078,-0.42999999999999994 L0.20390243902439023,-0.43999999999999995 L0.19999999999999996,-0.4471910112359551 L0.19839743589743591,-0.44999999999999996 L0.19256410256410256,-0.45999999999999996 L0.18999999999999995,-0.46430107526881725 L0.1864189189189189,-0.47 L0.18,-0.48 L0.17307142857142857,-0.49 L0.16999999999999993,-0.4943434343434344 L0.16575757575757574,-0.5 L0.15999999999999992,-0.5075247524752476 L0.1579838709677421,-0.51 L0.15000000000000013,-0.5196116504854367 L0.15000000000000013,-0.5196116504854367 L0.14060344827586202,-0.53 L0.13074074074074069,-0.54 L0.1200000000000001,-0.5499082568807339 L0.12000000000000009,-0.5499082568807339 L0.1100000000000001,-0.5581981981981982 L0.10761904761904753,-0.56 L0.10000000000000009,-0.5656637168141592 L0.09355263157894719,-0.5700000000000001 L0.09000000000000008,-0.5723478260869564 L0.08000000000000007,-0.5782608695652173 L0.07666666666666637,-0.5800000000000001 L0.07000000000000006,-0.5834188034188034 L0.06000000000000005,-0.5878632478632478 L0.05431818181818153,-0.5900000000000001 L0.050000000000000044,-0.5915966386554622 L0.040000000000000036,-0.5946218487394958 L0.030000000000000027,-0.5969747899159663 L0.020000000000000018,-0.5986554621848739 L0.010000000000000009,-0.5996638655462184 L0,-0.6 L-0.010000000000000009,-0.5996638655462184 L-0.020000000000000018,-0.5986554621848739 L-0.030000000000000027,-0.5969747899159663 L-0.040000000000000036,-0.5946218487394958 L-0.04999999999999993,-0.5915966386554622 L-0.05431818181818156,-0.5900000000000001 L-0.05999999999999994,-0.5878632478632478 L-0.06999999999999995,-0.5834188034188034 L-0.07666666666666638,-0.5800000000000001 L-0.07999999999999996,-0.5782608695652174 L-0.08999999999999997,-0.5723478260869566 L-0.0935526315789472,-0.5700000000000001 L-0.09999999999999998,-0.5656637168141593 L-0.10761904761904753,-0.56 L-0.10999999999999999,-0.5581981981981982 L-0.11989130434782598,-0.55 L-0.13,-0.5407339449541284 L-0.14,-0.5306542056074766 L-0.14965517241379306,-0.52 L-0.1579838709677419,-0.51 L-0.16000000000000003,-0.5075247524752474 L-0.1657575757575757,-0.5 L-0.16999999999999993,-0.4943434343434344 L-0.17307142857142857,-0.49 L-0.17999999999999994,-0.48000000000000004 L-0.1864189189189189,-0.47 L-0.18999999999999995,-0.46430107526881725 L-0.19256410256410256,-0.45999999999999996 L-0.19839743589743591,-0.44999999999999996 L-0.19999999999999996,-0.4471910112359551 L-0.20390243902439023,-0.43999999999999995 L-0.20920731707317078,-0.42999999999999994 L-0.20999999999999996,-0.42847058823529416 L-0.21418604651162793,-0.41999999999999993 L-0.21901162790697676,-0.4099999999999999 L-0.21999999999999997,-0.4079012345679014 L-0.22355555555555545,-0.40000000000000013 L-0.22794444444444437,-0.3900000000000001 L-0.22999999999999998,-0.38519480519480515 L-0.23212765957446801,-0.3800000000000001 L-0.23611702127659567,-0.3700000000000001 L-0.23999999999999994,-0.3600000000000001 L-0.2436224489795918,-0.3500000000000001 L-0.2471428571428571,-0.3400000000000001 L-0.25,-0.3316417910447761 L-0.25053921568627446,-0.33000000000000007 L-0.2537254901960784,-0.32000000000000006 L-0.25681372549019604,-0.31000000000000005 L-0.2598039215686274,-0.30000000000000004 L-0.2625943396226415,-0.29000000000000004 L-0.2652830188679245,-0.28 L-0.26787735849056604,-0.27 L-0.27,-0.261509433962264 L-0.27036363636363636,-0.26 L-0.2726818181818182,-0.25 L-0.2749090909090909,-0.24 L-0.27704545454545454,-0.22999999999999998 L-0.27909090909090906,-0.21999999999999997 L-0.28,-0.21534883720930217 L-0.28100877192982454,-0.20999999999999996 L-0.2828070175438596,-0.19999999999999996 L-0.2845175438596491,-0.18999999999999995 L-0.286140350877193,-0.17999999999999994 L-0.2876754385964912,-0.16999999999999993 L-0.28912280701754384,-0.15999999999999992 L-0.29000000000000004,-0.15354838709677376 L-0.2904661016949151,-0.15000000000000013 L-0.29169491525423713,-0.14000000000000012 L-0.2928389830508473,-0.13000000000000012 L-0.2938983050847457,-0.1200000000000001 L-0.2948728813559321,-0.1100000000000001 L-0.2957627118644067,-0.10000000000000009 L-0.2965677966101694,-0.09000000000000008 L-0.2972881355932203,-0.08000000000000007 L-0.2979237288135593,-0.07000000000000006 L-0.2984745762711864,-0.06000000000000005 L-0.29894067796610163,-0.050000000000000044 L-0.2993220338983051,-0.040000000000000036 L-0.2996186440677966,-0.030000000000000027 L-0.29983050847457626,-0.020000000000000018 L-0.29995762711864404,-0.010000000000000009 L-0.29999999999999993,-1.199040866595461e-14 L-0.29999999999999993,1.1999082283331575e-14 L-0.29995762711864404,0.010000000000000009 L-0.29983050847457626,0.020000000000000018 L-0.2996186440677966,0.030000000000000027 L-0.2993220338983051,0.040000000000000036 L-0.29894067796610163,0.04999999999999993 L-0.2984745762711864,0.05999999999999994 L-0.2979237288135593,0.06999999999999995 L-0.2972881355932203,0.07999999999999996 L-0.2965677966101694,0.08999999999999997 L-0.2957627118644067,0.09999999999999998 L-0.2948728813559321,0.10999999999999999 L-0.2938983050847457,0.12 L-0.2928389830508473,0.13 L-0.2916949152542372,0.14 L-0.2904661016949151,0.15000000000000002 L-0.2899999999999999,0.15354838709677374 L-0.28912280701754384,0.16000000000000003 L-0.2876754385964912,0.16999999999999993 L-0.286140350877193,0.17999999999999994 L-0.2845175438596491,0.18999999999999995 L-0.2828070175438596,0.19999999999999996 L-0.28100877192982454,0.20999999999999996 L-0.28,0.21534883720930215 L-0.27909090909090906,0.21999999999999997 L-0.27704545454545454,0.22999999999999998 L-0.2749090909090909,0.24 L-0.2726818181818182,0.25 L-0.27036363636363636,0.26 L-0.27,0.261509433962264 L-0.26787735849056604,0.27 L-0.2652830188679245,0.28 L-0.2625943396226415,0.29000000000000004 L-0.26,0.2993220338983049 L-0.25681372549019604,0.30999999999999994 L-0.25372549019607843,0.31999999999999995 L-0.2505392156862745,0.32999999999999996 L-0.25,0.3316417910447761 L-0.2471428571428571,0.33999999999999997 L-0.24362244897959182,0.35 L-0.24,0.36 L-0.24,0.36 L-0.23611702127659573,0.37 L-0.23212765957446804,0.38 L-0.22999999999999998,0.3851948051948051 L-0.22794444444444437,0.39 L-0.2235555555555555,0.4 L-0.21999999999999997,0.4079012345679012 L-0.2190116279069767,0.41000000000000003 L-0.21418604651162787,0.42000000000000004 L-0.20999999999999996,0.42847058823529416 L-0.20920731707317078,0.42999999999999994 L-0.20390243902439023,0.43999999999999995 L-0.19999999999999996,0.4471910112359551 L-0.19839743589743591,0.44999999999999996 L-0.19256410256410256,0.45999999999999996 L-0.18999999999999995,0.46430107526881725 L-0.1864189189189189,0.47 L-0.18,0.48 L-0.17999999999999994,0.48000000000000004 L-0.17307142857142857,0.49 L-0.16999999999999993,0.4943434343434344 L-0.1657575757575757,0.5 L-0.15999999999999992,0.5075247524752474 L-0.1579838709677419,0.51 L-0.15000000000000002,0.5196116504854369 L-0.140603448275862,0.53 L-0.14,0.5306542056074766 L-0.13074074074074069,0.54 L-0.13,0.5407339449541284 L-0.12000000000000001,0.5499082568807339 L-0.11,0.5581981981981982 L-0.10761904761904753,0.56 L-0.09999999999999999,0.5656637168141593 L-0.0935526315789472,0.5700000000000001 L-0.08999999999999998,0.5723478260869566 L-0.07999999999999997,0.5782608695652174 L-0.07666666666666638,0.5800000000000001 L-0.06999999999999997,0.5834188034188033 L-0.05999999999999995,0.5878632478632478 L-0.05431818181818179,0.59 Z M-0.12,0.5499082568807339 L-0.11989130434782598,0.55 Z M-0.15000000000000002,0.5196116504854369 L-0.14965517241379306,0.52 Z M-0.26,0.2993220338983049 L-0.2598039215686274,0.29999999999999993 Z M-0.3,0 L-0.29999999999999993,-1.199040866595461e-14 Z M-0.26,-0.29932203389830503 L-0.2598039215686274,-0.30000000000000004 Z M-0.24,-0.36 L-0.23999999999999994,-0.3600000000000001 Z M-0.18,-0.48 L-0.17999999999999994,-0.48000000000000004 Z M0.17999999999999994,-0.48000000000000004 L0.18,-0.48 Z M-0.15000000000000002,-0.5196116504854369 L-0.14965517241379306,-0.52 Z M-0.140603448275862,-0.53 L-0.14,-0.5306542056074766 Z M0.14000000000000012,-0.5306542056074764 L0.14060344827586202,-0.53 Z M-0.13074074074074069,-0.54 L-0.13,-0.5407339449541284 Z M-0.12,-0.5499082568807339 L-0.11989130434782598,-0.55 Z M0.13000000000000012,-0.5407339449541283 L0.13074074074074069,-0.54 Z" fill="none" stroke="black" stroke-width="0.005"/>
</svg>