<svg viewBox="-1 -1 2 2" xmlns="http://www.w3.org/2000/svg">
    <path d="M-0.5830769230769229,1 L-0.58,0.9927638190954776 L-0.5788043478260869,0.99 L-0.5745217391304347,0.98 L-0.5702826086956522,0.97 L-0.5700000000000001,0.9693264248704665 L-0.5660176991150442,0.96 L-0.5617920353982301,0.95 L-0.56,0.9457142857142857 L-0.5575675675675675,0.94 L-0.5533558558558558,0.9299999999999999 L-0.55,0.921945945945946 L-0.5491743119266055,0.9199999999999999 L-0.5449770642201834,0.91 L-0.5408256880733945,0.9 L-0.54,0.8979888268156425 L-0.536658878504673,0.89 L-0.5325233644859813,0.88 L-0.53,0.8738285714285716 L-0.5284047619047618,0.87 L-0.5242857142857142,0.86 L-0.5202142857142857,0.85 L-0.52,0.8494674556213019 L-0.5161165048543689,0.84 L-0.5120631067961164,0.83 L-0.51,0.8248484848484848 L-0.508019801980198,0.82 L-0.5039851485148515,0.81 L-0.5,0.8 L-0.5,0.8 L-0.4959848484848485,0.79 L-0.492020202020202,0.78 L-0.49,0.7748387096774193 L-0.48806701030927835,0.77 L-0.4841237113402062,0.76 L-0.4802319587628866,0.75 L-0.48,0.7493959731543625 L-0.4763157894736842,0.74 L-0.4724473684210526,0.73 L-0.47,0.7235862068965517 L-0.4686021505376344,0.72 L-0.464758064516129,0.71 L-0.46096774193548384,0.7 L-0.45999999999999996,0.6974100719424461 L-0.4571703296703296,0.69 L-0.45340659340659334,0.6799999999999999 L-0.44999999999999996,0.6708148148148148 L-0.449691011235955,0.6699999999999999 L-0.4459550561797752,0.6599999999999999 L-0.44227528089887636,0.6499999999999999 L-0.43999999999999995,0.643720930232558 L-0.43862068965517237,0.6399999999999999 L-0.4349712643678161,0.63 L-0.43137931034482757,0.62 L-0.42999999999999994,0.6160975609756096 L-0.42779411764705877,0.61 L-0.424235294117647,0.6 L-0.42073529411764693,0.59 L-0.41999999999999993,0.587863247863248 L-0.41722891566265063,0.58 L-0.4137650602409639,0.5700000000000001 L-0.41036144578313255,0.56 L-0.41000000000000003,0.5589189189189191 L-0.40694444444444444,0.55 L-0.40358024691358024,0.54 L-0.40027777777777773,0.53 L-0.4,0.5291428571428572 L-0.3969620253164557,0.52 L-0.3937025316455696,0.51 L-0.390506329113924,0.5 L-0.39,0.4983838383838385 L-0.38730519480519476,0.49 L-0.38415584415584414,0.48 L-0.38107142857142856,0.47 L-0.38,0.4664516129032259 L-0.37799999999999995,0.45999999999999996 L-0.3749666666666666,0.44999999999999996 L-0.372,0.43999999999999995 L-0.37,0.4331034482758621 L-0.3690753424657534,0.42999999999999994 L-0.3661643835616438,0.41999999999999993 L-0.3633219178082192,0.41000000000000003 L-0.36054794520547945,0.4 L-0.36,0.3979746835443037 L-0.3577816901408451,0.39 L-0.35507042253521126,0.38 L-0.3524295774647887,0.37 L-0.35,0.3605479452054795 L-0.34985507246376807,0.36 L-0.34728260869565214,0.35 L-0.34478260869565214,0.33999999999999997 L-0.34235507246376806,0.32999999999999996 L-0.33999999999999997,0.31999999999999995 L-0.33999999999999997,0.31999999999999995 L-0.33764925373134325,0.30999999999999994 L-0.3353731343283582,0.29999999999999993 L-0.33317164179104475,0.2899999999999999 L-0.331044776119403,0.28 L-0.32999999999999996,0.2749090909090907 L-0.32896153846153847,0.27 L-0.3269230769230769,0.26 L-0.32496153846153847,0.25 L-0.32307692307692304,0.24 L-0.32126923076923075,0.22999999999999998 L-0.31999999999999995,0.2226666666666665 L-0.3195238095238095,0.21999999999999997 L-0.31781746031746033,0.20999999999999996 L-0.3161904761904762,0.19999999999999996 L-0.3146428571428571,0.18999999999999995 L-0.31317460317460316,0.17999999999999994 L-0.3117857142857143,0.16999999999999993 L-0.31047619047619046,0.15999999999999992 L-0.30999999999999994,0.1561290322580642 L-0.3092213114754098,0.15000000000000002 L-0.3080327868852459,0.14 L-0.3069262295081967,0.13 L-0.3059016393442623,0.12000000000000001 L-0.3049590163934426,0.11 L-0.3040983606557377,0.09999999999999999 L-0.3033196721311475,0.08999999999999998 L-0.3026229508196721,0.07999999999999997 L-0.30200819672131146,0.06999999999999997 L-0.3014754098360656,0.05999999999999995 L-0.3010245901639344,0.04999999999999994 L-0.30065573770491805,0.03999999999999993 L-0.3003688524590164,0.030000000000000034 L-0.30016393442622946,0.020000000000000025 L-0.30004098360655734,0.010000000000000018 L-0.3,8.673617379884035e-18 L-0.30004098360655734,-0.01 L-0.30016393442622946,-0.02000000000000001 L-0.3003688524590164,-0.03000000000000002 L-0.30065573770491805,-0.04000000000000003 L-0.3010245901639344,-0.05000000000000004 L-0.3014754098360656,-0.060000000000000046 L-0.30200819672131146,-0.07000000000000005 L-0.3026229508196721,-0.08000000000000006 L-0.3033196721311475,-0.09000000000000007 L-0.3040983606557377,-0.10000000000000007 L-0.30495901639344264,-0.11000000000000008 L-0.3059016393442623,-0.12000000000000009 L-0.3069262295081967,-0.13000000000000012 L-0.3080327868852459,-0.14000000000000012 L-0.3092213114754099,-0.15000000000000013 L-0.30999999999999994,-0.1561290322580643 L-0.31047619047619046,-0.16000000000000014 L-0.3117857142857143,-0.16999999999999993 L-0.31317460317460316,-0.17999999999999994 L-0.3146428571428571,-0.18999999999999995 L-0.3161904761904762,-0.19999999999999996 L-0.31781746031746033,-0.20999999999999996 L-0.3195238095238095,-0.21999999999999997 L-0.31999999999999995,-0.2226666666666665 L-0.32126923076923075,-0.22999999999999998 L-0.32307692307692304,-0.24 L-0.32496153846153847,-0.25 L-0.3269230769230769,-0.26 L-0.32896153846153847,-0.27 L-0.32999999999999996,-0.2749090909090907 L-0.331044776119403,-0.28 L-0.33317164179104475,-0.29000000000000004 L-0.3353731343283582,-0.30000000000000004 L-0.3376492537313433,-0.31000000000000005 L-0.33999999999999997,-0.32 L-0.33999999999999997,-0.32 L-0.3423550724637681,-0.33000000000000007 L-0.3447826086956522,-0.3400000000000001 L-0.34728260869565214,-0.3500000000000001 L-0.3498550724637681,-0.3600000000000001 L-0.35242957746478876,-0.3700000000000001 L-0.3550704225352113,-0.3800000000000001 L-0.3577816901408451,-0.3900000000000001 L-0.36,-0.3979746835443037 L-0.3605479452054795,-0.40000000000000013 L-0.36332191780821915,-0.41000000000000014 L-0.36616438356164377,-0.41999999999999993 L-0.3690753424657534,-0.42999999999999994 L-0.37,-0.4331034482758621 L-0.372,-0.43999999999999995 L-0.3749666666666666,-0.44999999999999996 L-0.37799999999999995,-0.45999999999999996 L-0.38,-0.4664516129032259 L-0.38107142857142856,-0.47 L-0.38415584415584414,-0.48 L-0.38730519480519476,-0.49 L-0.39,-0.4983838383838385 L-0.390506329113924,-0.5 L-0.3937025316455696,-0.51 L-0.3969620253164557,-0.52 L-0.4,-0.5291428571428572 L-0.4,-0.5291428571428572 L-0.40358024691358024,-0.54 L-0.40694444444444444,-0.55 L-0.41000000000000003,-0.5589189189189191 L-0.41036144578313255,-0.56 L-0.4137650602409639,-0.5700000000000001 L-0.41722891566265063,-0.5800000000000001 L-0.42000000000000004,-0.5878632478632481 L-0.420735294117647,-0.5900000000000001 L-0.42423529411764704,-0.6000000000000001 L-0.4277941176470588,-0.6100000000000001 L-0.42999999999999994,-0.6160975609756096 L-0.4313793103448276,-0.6200000000000001 L-0.4349712643678161,-0.6300000000000001 L-0.4386206896551724,-0.6400000000000001 L-0.43999999999999995,-0.643720930232558 L-0.4422752808988764,-0.6500000000000001 L-0.44595505617977527,-0.6600000000000001 L-0.449691011235955,-0.6700000000000002 L-0.45340659340659334,-0.6799999999999999 L-0.4571703296703296,-0.69 L-0.45999999999999996,-0.6974100719424461 L-0.46096774193548384,-0.7 L-0.464758064516129,-0.71 L-0.4686021505376344,-0.72 L-0.47,-0.7235862068965517 L-0.4724473684210526,-0.73 L-0.4763157894736842,-0.74 L-0.48,-0.7493959731543625 L-0.48,-0.7493959731543625 L-0.4841237113402062,-0.76 L-0.48806701030927835,-0.77 L-0.49,-0.7748387096774193 L-0.492020202020202,-0.78 L-0.4959848484848485,-0.79 L-0.5,-0.8 L-0.5,-0.8 L-0.5039851485148515,-0.81 L-0.508019801980198,-0.8200000000000001 L-0.51,-0.8248484848484849 L-0.5120631067961166,-0.8300000000000001 L-0.516116504854369,-0.8400000000000001 L-0.52,-0.8494674556213019 L-0.52,-0.8494674556213019 L-0.5242857142857142,-0.8600000000000001 L-0.5284047619047619,-0.8700000000000001 L-0.53,-0.8738285714285715 L-0.5325233644859814,-0.8800000000000001 L-0.536658878504673,-0.8900000000000001 L-0.54,-0.8979888268156425 L-0.5408256880733946,-0.9000000000000001 L-0.5449770642201835,-0.9100000000000001 L-0.5491743119266055,-0.9200000000000002 L-0.55,-0.921945945945946 L-0.5533558558558558,-0.9299999999999999 L-0.5575675675675675,-0.94 L-0.56,-0.9457142857142857 L-0.5617920353982301,-0.95 L-0.5660176991150442,-0.96 L-0.5700000000000001,-0.9693264248704665 L-0.5700000000000001,-0.9693264248704665 L-0.5745217391304347,-0.98 L-0.5788043478260869,-0.99 L-0.5800000000000001,-0.9927638190954776 L-0.5830769230769229,-1 M0.5788043478260869,0.99 L0.5800000000000001,0.9927638190954776 L0.583076923076923,1 M0.5788043478260869,0.99 L0.5745217391304347,0.98 L0.5702826086956522,0.97 L0.5660176991150442,0.96 L0.5617920353982301,0.95 L0.56,0.9457142857142857 L0.5575675675675675,0.94 L0.5533558558558558,0.9299999999999999 L0.55,0.921945945945946 L0.5491743119266055,0.9199999999999999 L0.5449770642201834,0.91 L0.5408256880733945,0.9 L0.54,0.8979888268156425 L0.536658878504673,0.89 L0.5325233644859813,0.88 L0.53,0.8738285714285716 L0.5284047619047618,0.87 L0.5242857142857142,0.86 L0.5202142857142857,0.85 L0.5161165048543689,0.84 L0.5120631067961164,0.83 L0.51,0.8248484848484848 L0.508019801980198,0.82 L0.5039851485148515,0.81 L0.5,0.8 L0.4959848484848485,0.79 L0.492020202020202,0.78 L0.49,0.7748387096774193 L0.48806701030927835,0.77 L0.4841237113402062,0.76 L0.4802319587628866,0.75 L0.4763157894736842,0.74 L0.4724473684210526,0.73 L0.47,0.7235862068965517 L0.4686021505376344,0.72 L0.464758064516129,0.71 L0.46096774193548384,0.7 L0.45999999999999996,0.6974100719424461 L0.4571703296703296,0.69 L0.45340659340659334,0.6799999999999999 L0.44999999999999996,0.6708148148148148 L0.44999999999999996,0.6708148148148148 L0.4459550561797752,0.6599999999999999 L0.44227528089887636,0.6499999999999999 L0.43999999999999995,0.643720930232558 L0.43862068965517237,0.6399999999999999 L0.4349712643678161,0.63 L0.43137931034482757,0.62 L0.42999999999999994,0.6160975609756096 L0.4277941176470588,0.61 L0.42423529411764704,0.6 L0.42073529411764704,0.59 L0.41999999999999993,0.5878632478632476 L0.41722891566265063,0.58 L0.4137650602409639,0.5700000000000001 L0.4103614457831325,0.56 L0.4099999999999999,0.5589189189189188 L0.4069444444444446,0.55 L0.4035802469135803,0.54 L0.4002777777777778,0.53 L0.3969620253164557,0.52 L0.3937025316455696,0.51 L0.3905063291139241,0.5 L0.3900000000000001,0.4983838383838387 L0.3873051948051948,0.49 L0.38415584415584414,0.48 L0.38107142857142856,0.47 L0.3800000000000001,0.46645161290322623 L0.37799999999999995,0.45999999999999996 L0.37496666666666667,0.44999999999999996 L0.372,0.43999999999999995 L0.3700000000000001,0.4331034482758624 L0.3690753424657534,0.42999999999999994 L0.3661643835616438,0.41999999999999993 L0.36332191780821915,0.41000000000000003 L0.36054794520547945,0.4 L0.3600000000000001,0.3979746835443042 L0.35778169014084504,0.39 L0.35507042253521126,0.38 L0.35242957746478876,0.37 L0.3500000000000001,0.3605479452054797 L0.3500000000000001,0.3605479452054797 L0.3472826086956522,0.35 L0.3447826086956522,0.33999999999999997 L0.3423550724637681,0.32999999999999996 L0.3400000000000001,0.32000000000000045 L0.3400000000000001,0.32000000000000045 L0.33764925373134325,0.30999999999999994 L0.3353731343283582,0.29999999999999993 L0.33317164179104475,0.2899999999999999 L0.331044776119403,0.28 L0.33000000000000007,0.27490909090909127 L0.32896153846153847,0.27 L0.3269230769230769,0.26 L0.32496153846153847,0.25 L0.32307692307692304,0.24 L0.32126923076923075,0.22999999999999998 L0.32000000000000006,0.22266666666666723 L0.3195238095238095,0.21999999999999997 L0.3178174603174603,0.20999999999999996 L0.31619047619047613,0.19999999999999996 L0.3146428571428571,0.18999999999999995 L0.3131746031746031,0.17999999999999994 L0.3117857142857142,0.16999999999999993 L0.31047619047619046,0.15999999999999992 L0.31000000000000005,0.15612903225806524 L0.3092213114754098,0.15000000000000002 L0.3080327868852459,0.14 L0.3069262295081967,0.13 L0.3059016393442623,0.12000000000000001 L0.3049590163934426,0.11 L0.3040983606557377,0.09999999999999999 L0.3033196721311475,0.08999999999999998 L0.3026229508196721,0.07999999999999997 L0.30200819672131146,0.06999999999999997 L0.3014754098360656,0.05999999999999995 L0.3010245901639344,0.04999999999999994 L0.300655737704918,0.03999999999999993 L0.3003688524590164,0.030000000000000034 L0.30016393442622946,0.020000000000000025 L0.30004098360655734,0.010000000000000018 L0.30000000000000004,1.5995885171982138e-14 L0.30000000000000004,1.5995885171982138e-14 L0.30000000000000004,-1.5987211554599755e-14 L0.30004098360655734,-0.01 L0.30016393442622946,-0.02000000000000001 L0.3003688524590164,-0.03000000000000002 L0.300655737704918,-0.04000000000000003 L0.3010245901639344,-0.05000000000000004 L0.3014754098360656,-0.060000000000000046 L0.30200819672131146,-0.07000000000000005 L0.3026229508196721,-0.08000000000000006 L0.3033196721311475,-0.09000000000000007 L0.3040983606557377,-0.10000000000000007 L0.3049590163934426,-0.11000000000000008 L0.3059016393442623,-0.12000000000000009 L0.3069262295081967,-0.13000000000000012 L0.3080327868852459,-0.14000000000000012 L0.3092213114754098,-0.15000000000000013 L0.31000000000000005,-0.15612903225806532 L0.3104761904761904,-0.16000000000000014 L0.3117857142857142,-0.16999999999999993 L0.3131746031746031,-0.17999999999999994 L0.3146428571428571,-0.18999999999999995 L0.31619047619047613,-0.19999999999999996 L0.3178174603174603,-0.20999999999999996 L0.3195238095238095,-0.21999999999999997 L0.32000000000000006,-0.22266666666666723 L0.32126923076923075,-0.22999999999999998 L0.32307692307692304,-0.24 L0.32496153846153847,-0.25 L0.3269230769230769,-0.26 L0.32896153846153847,-0.27 L0.33000000000000007,-0.27490909090909127 L0.331044776119403,-0.28 L0.33317164179104475,-0.29000000000000004 L0.3353731343283582,-0.30000000000000004 L0.3376492537313433,-0.31000000000000005 L0.34,-0.32000000000000006 L0.3400000000000001,-0.3200000000000003 L0.3423550724637681,-0.33000000000000007 L0.3447826086956522,-0.3400000000000001 L0.3472826086956522,-0.3500000000000001 L0.3498550724637682,-0.3600000000000001 L0.3500000000000001,-0.3605479452054797 L0.35242957746478876,-0.3700000000000001 L0.35507042253521126,-0.3800000000000001 L0.3577816901408451,-0.3900000000000001 L0.3600000000000001,-0.3979746835443042 L0.36054794520547945,-0.40000000000000013 L0.36332191780821915,-0.41000000000000014 L0.3661643835616438,-0.41999999999999993 L0.3690753424657534,-0.42999999999999994 L0.3700000000000001,-0.4331034482758624 L0.372,-0.43999999999999995 L0.37496666666666667,-0.44999999999999996 L0.37799999999999995,-0.45999999999999996 L0.3800000000000001,-0.46645161290322623 L0.38107142857142856,-0.47 L0.38415584415584414,-0.48 L0.3873051948051948,-0.49 L0.3900000000000001,-0.4983838383838387 L0.3905063291139241,-0.5 L0.3937025316455696,-0.51 L0.3969620253164557,-0.52 L0.40000000000000013,-0.5291428571428576 L0.4002777777777778,-0.53 L0.4035802469135803,-0.54 L0.4069444444444446,-0.55 L0.41000000000000014,-0.5589189189189188 L0.4103614457831325,-0.56 L0.4137650602409639,-0.5700000000000001 L0.41722891566265063,-0.5800000000000001 L0.41999999999999993,-0.5878632478632477 L0.4207352941176471,-0.5900000000000001 L0.4242352941176471,-0.6000000000000001 L0.4277941176470588,-0.6100000000000001 L0.42999999999999994,-0.6160975609756096 L0.4313793103448276,-0.6200000000000001 L0.4349712643678161,-0.6300000000000001 L0.4386206896551724,-0.6400000000000001 L0.43999999999999995,-0.643720930232558 L0.4422752808988764,-0.6500000000000001 L0.44595505617977527,-0.6600000000000001 L0.449691011235955,-0.6700000000000002 L0.44999999999999996,-0.6708148148148148 L0.45340659340659334,-0.6799999999999999 L0.4571703296703296,-0.69 L0.45999999999999996,-0.6974100719424461 L0.46096774193548384,-0.7 L0.464758064516129,-0.71 L0.4686021505376344,-0.72 L0.47,-0.7235862068965517 L0.4724473684210526,-0.73 L0.4763157894736842,-0.74 L0.48,-0.7493959731543625 L0.4802319587628866,-0.75 L0.4841237113402062,-0.76 L0.48806701030927835,-0.77 L0.49,-0.7748387096774193 L0.492020202020202,-0.78 L0.4959848484848485,-0.79 L0.5,-0.8 L0.5,-0.8 L0.5039851485148515,-0.81 L0.508019801980198,-0.8200000000000001 L0.51,-0.8248484848484849 L0.5120631067961166,-0.8300000000000001 L0.516116504854369,-0.8400000000000001 L0.52,-0.8494674556213019 L0.5202142857142857,-0.8500000000000001 L0.5242857142857142,-0.8600000000000001 L0.5284047619047619,-0.8700000000000001 L0.53,-0.8738285714285715 L0.5325233644859814,-0.8800000000000001 L0.536658878504673,-0.8900000000000001 L0.54,-0.8979888268156425 L0.5408256880733946,-0.9000000000000001 L0.5449770642201835,-0.9100000000000001 L0.5491743119266055,-0.9200000000000002 L0.55,-0.921945945945946 L0.5533558558558558,-0.9299999999999999 L0.5575675675675675,-0.94 L0.56,-0.9457142857142857 L0.5617920353982301,-0.95 L0.5660176991150442,-0.96 L0.5700000000000001,-0.9693264248704665 L0.5702826086956522,-0.97 L0.5745217391304347,-0.98 L0.5788043478260869,-0.99 L0.5800000000000001,-0.9927638190954776 L0.583076923076923,-1 M0.5700000000000001,0.9693264248704665 L0.5702826086956522,0.97 Z M0.52,0.8494674556213019 L0.5202142857142857,0.85 Z M0.5,0.8 L0.5,0.8 Z M0.48,0.7493959731543625 L0.4802319587628866,0.75 Z M0.40000000000000013,0.5291428571428576 L0.4002777777777778,0.53 Z M-0.35,-0.36054794520547945 L-0.3498550724637681,-0.3600000000000001 Z M-0.44999999999999996,-0.6708148148148148 L-0.449691011235955,-0.6699999999999999 Z" fill="none" stroke="black" stroke-width="0.005"/>
</svg>