<svg viewBox="-1 -1 2 2" xmlns="http://www.w3.org/2000/svg">
    <circle cx="0" cy="0" r="0.01" fill="black" />
  <path d="M-1,8.673617379884035e-17 L-0.99,8.673617379884035e-17 L-0.98,8.673617379884035e-17 L-0.97,8.500145032286355e-17 L-0.96,8.326672684688674e-17 L-0.95,8.326672684688674e-17 L-0.94,8.153200337090993e-17 L-0.9299999999999999,8.153200337090993e-17 L-0.9199999999999999,8.153200337090993e-17 L-0.91,7.979727989493313e-17 L-0.9,7.979727989493313e-17 L-0.89,7.806255641895632e-17 L-0.88,7.806255641895632e-17 L-0.87,7.806255641895632e-17 L-0.86,7.632783294297951e-17 L-0.85,7.45931094670027e-17 L-0.84,7.45931094670027e-17 L-0.83,7.45931094670027e-17 L-0.82,7.112366251504909e-17 L-0.81,7.112366251504909e-17 L-0.8,7.112366251504909e-17 L-0.79,7.112366251504909e-17 L-0.78,6.938893903907228e-17 L-0.77,6.938893903907228e-17 L-0.76,6.938893903907228e-17 L-0.75,6.765421556309548e-17 L-0.74,6.591949208711867e-17 L-0.73,6.591949208711867e-17 L-0.72,6.591949208711867e-17 L-0.71,6.418476861114186e-17 L-0.7,6.418476861114186e-17 L-0.69,6.245004513516506e-17 L-0.6799999999999999,6.245004513516506e-17 L-0.6699999999999999,6.245004513516506e-17 L-0.6599999999999999,5.898059818321144e-17 L-0.6499999999999999,5.898059818321144e-17 L-0.6399999999999999,5.898059818321144e-17 L-0.63,5.724587470723463e-17 L-0.62,5.724587470723463e-17 L-0.61,5.724587470723463e-17 L-0.6,5.551115123125783e-17 L-0.59,5.551115123125783e-17 L-0.58,5.377642775528102e-17 L-0.5700000000000001,5.377642775528102e-17 L-0.56,5.377642775528102e-17 L-0.55,5.204170427930421e-17 L-0.54,5.204170427930421e-17 L-0.53,5.0306980803327406e-17 L-0.52,4.85722573273506e-17 L-0.51,4.85722573273506e-17 L-0.5,4.683753385137379e-17 L-0.49,4.683753385137379e-17 L-0.48,4.683753385137379e-17 L-0.47,4.5102810375396984e-17 L-0.45999999999999996,4.336808689942018e-17 L-0.44999999999999996,4.336808689942018e-17 L-0.43999999999999995,4.336808689942018e-17 L-0.42999999999999994,4.336808689942018e-17 L-0.41999999999999993,4.163336342344337e-17 L-0.41000000000000003,4.163336342344337e-17 L-0.4,4.163336342344337e-17 L-0.39,3.9898639947466563e-17 L-0.38,3.8163916471489756e-17 L-0.37,3.8163916471489756e-17 L-0.36,3.642919299551295e-17 L-0.35,3.469446951953614e-17 L-0.33999999999999997,3.469446951953614e-17 L-0.32999999999999996,3.469446951953614e-17 L-0.31999999999999995,3.2959746043559335e-17 L-0.30999999999999994,3.2959746043559335e-17 L-0.29999999999999993,3.122502256758253e-17 L-0.2899999999999999,3.122502256758253e-17 L-0.28,3.122502256758253e-17 L-0.27,2.949029909160572e-17 L-0.26,2.949029909160572e-17 L-0.25,2.949029909160572e-17 L-0.24,2.7755575615628914e-17 L-0.22999999999999998,2.7755575615628914e-17 L-0.21999999999999997,2.6020852139652106e-17 L-0.20999999999999996,2.42861286636753e-17 L-0.19999999999999996,2.42861286636753e-17 L-0.18999999999999995,2.2551405187698492e-17 L-0.17999999999999994,2.2551405187698492e-17 L-0.16999999999999993,2.2551405187698492e-17 L-0.15999999999999992,2.0816681711721685e-17 L-0.15000000000000002,2.0816681711721685e-17 L-0.14,1.9081958235744878e-17 L-0.13,1.9081958235744878e-17 L-0.12000000000000001,1.9081958235744878e-17 L-0.11,1.734723475976807e-17 L-0.09999999999999999,1.5612511283791264e-17 L-0.08999999999999998,1.5612511283791264e-17 L-0.07999999999999997,1.5612511283791264e-17 L-0.06999999999999997,1.3877787807814457e-17 L-0.05999999999999995,1.3877787807814457e-17 L-0.04999999999999994,1.214306433183765e-17 L-0.03999999999999993,1.214306433183765e-17 L-0.030000000000000034,1.0408340855860843e-17 L-0.020000000000000025,1.0408340855860843e-17 L-0.010000000000000018,1.0408340855860843e-17 L-8.673617379884035e-18,8.673617379884035e-18 L0,8.673617379884035e-18 L0.01,-7.850462293418876e-19 L0.02000000000000001,-1.5700924586837753e-18 L0.03000000000000002,-2.355138688025663e-18 L0.04000000000000003,-3.1401849173675505e-18 L0.05000000000000004,-3.925231146709438e-18 L0.060000000000000046,-4.710277376051326e-18 L0.07000000000000005,-5.495323605393214e-18 L0.08000000000000006,-6.280369834735101e-18 L0.09000000000000007,-7.065416064076989e-18 L0.10000000000000007,-7.850462293418877e-18 L0.11000000000000008,-8.635508522760763e-18 L0.12000000000000009,-9.420554752102652e-18 L0.13000000000000012,-1.020560098144454e-17 L0.14000000000000012,-1.0990647210786428e-17 L0.15000000000000013,-1.1775693440128316e-17 L0.16000000000000014,-1.2560739669470185e-17 L0.16999999999999993,-1.3345785898812072e-17 L0.17999999999999994,-1.413083212815396e-17 L0.18999999999999995,-1.4915878357495847e-17 L0.19999999999999996,-1.5700924586837735e-17 L0.20999999999999996,-1.6485970816179623e-17 L0.21999999999999997,-1.727101704552151e-17 L0.22999999999999998,-1.80560632748634e-17 L0.24,-1.8841109504205286e-17 L0.25,-1.9626155733547174e-17 L0.26,-2.0411201962889062e-17 L0.27,-2.119624819223095e-17 L0.28,-2.1981294421572835e-17 L0.29000000000000004,-2.2766340650914725e-17 L0.30000000000000004,-2.355138688025661e-17 L0.31000000000000005,-2.43364331095985e-17 L0.32000000000000006,-2.5121479338940386e-17 L0.33000000000000007,-2.5906525568282274e-17 L0.3400000000000001,-2.6691571797624165e-17 L0.3500000000000001,-2.747661802696605e-17 L0.3600000000000001,-2.826166425630794e-17 L0.3700000000000001,-2.904671048564983e-17 L0.3800000000000001,-2.983175671499171e-17 L0.3900000000000001,-3.0616802944333604e-17 L0.40000000000000013,-3.140184917367549e-17 L0.41000000000000014,-3.2186895403017355e-17 L0.41999999999999993,-3.2971941632359246e-17 L0.42999999999999994,-3.375698786170113e-17 L0.43999999999999995,-3.454203409104302e-17 L0.44999999999999996,-3.532708032038491e-17 L0.45999999999999996,-3.61121265497268e-17 L0.47,-3.689717277906868e-17 L0.48,-3.768221900841057e-17 L0.49,-3.8467265237752464e-17 L0.5,-3.925231146709435e-17 L0.51,-4.0037357696436233e-17 L0.52,-4.0822403925778124e-17 L0.53,-4.1607450155120015e-17 L0.54,-4.23924963844619e-17 L0.55,-4.3177542613803784e-17 L0.56,-4.396258884314567e-17 L0.5700000000000001,-4.4747635072487566e-17 L0.5800000000000001,-4.553268130182945e-17 L0.5900000000000001,-4.6317727531171336e-17 L0.6000000000000001,-4.710277376051322e-17 L0.6100000000000001,-4.788781998985511e-17 L0.6200000000000001,-4.8672866219197e-17 L0.6300000000000001,-4.945791244853889e-17 L0.6400000000000001,-5.024295867788077e-17 L0.6500000000000001,-5.102800490722266e-17 L0.6600000000000001,-5.181305113656455e-17 L0.6700000000000002,-5.259809736590642e-17 L0.6799999999999999,-5.338314359524831e-17 L0.69,-5.4168189824590196e-17 L0.7,-5.495323605393208e-17 L0.71,-5.573828228327397e-17 L0.72,-5.652332851261585e-17 L0.73,-5.730837474195775e-17 L0.74,-5.809342097129963e-17 L0.75,-5.887846720064152e-17 L0.76,-5.96635134299834e-17 L0.77,-6.04485596593253e-17 L0.78,-6.123360588866718e-17 L0.79,-6.201865211800907e-17 L0.8,-6.280369834735096e-17 L0.81,-6.358874457669284e-17 L0.8200000000000001,-6.437379080603473e-17 L0.8300000000000001,-6.515883703537663e-17 L0.8400000000000001,-6.594388326471852e-17 L0.8500000000000001,-6.67289294940604e-17 L0.8600000000000001,-6.751397572340229e-17 L0.8700000000000001,-6.829902195274418e-17 L0.8800000000000001,-6.908406818208607e-17 L0.8900000000000001,-6.986911441142795e-17 L0.9000000000000001,-7.065416064076984e-17 L0.9100000000000001,-7.143920687011173e-17 L0.9200000000000002,-7.22242530994536e-17 L0.9299999999999999,-7.300929932879548e-17 L0.94,-7.379434555813736e-17 L0.95,-7.457939178747925e-17 L0.96,-7.536443801682115e-17 L0.97,-7.614948424616302e-17 L0.98,-7.693453047550493e-17 L0.99,-7.77195767048468e-17 L1,-7.85046229341887e-17" fill="none" stroke="black" stroke-width="0.005"/>
</svg>