<svg viewBox="-1 -1 2 2" xmlns="http://www.w3.org/2000/svg">
    <path d="M0.9801,0.99 L0.99,0.9949748743718593 L1,1 M0.9603999999999999,0.98 L0.97,0.9848730964467005 L0.98,0.9899492385786802 L0.9801,0.99 M0.9409,0.97 L0.95,0.9746666666666667 L0.96,0.9797948717948718 L0.9603999999999999,0.98 M0.9216,0.96 L0.9299999999999999,0.9643523316062176 L0.94,0.9695336787564767 L0.9409,0.97 M0.9025,0.95 L0.9100000000000001,0.9539267015706807 L0.9200000000000002,0.9591623036649214 L0.9216,0.96 M0.8835999999999999,0.94 L0.8900000000000001,0.9433862433862434 L0.9000000000000001,0.9486772486772487 L0.9025,0.95 M0.8648999999999999,0.9299999999999999 L0.8700000000000001,0.9327272727272727 L0.8800000000000001,0.9380748663101605 L0.8835999999999999,0.94 M0.8464,0.9199999999999999 L0.8500000000000001,0.9219459459459459 L0.8600000000000001,0.9273513513513514 L0.8648999999999999,0.9299999999999999 M0.8281000000000001,0.91 L0.8300000000000001,0.9110382513661203 L0.8400000000000001,0.9165027322404372 L0.8464,0.92 M0.81,0.9 L0.81,0.9 L0.8200000000000001,0.905524861878453 L0.8281000000000001,0.91 M0.7921,0.89 L0.8,0.894413407821229 L0.81,0.9 M0.7744,0.88 L0.78,0.8831638418079096 L0.79,0.8888135593220339 L0.7921,0.89 M0.7569,0.87 L0.76,0.8717714285714285 L0.77,0.8774857142857143 L0.7744,0.88 M0.7395999999999999,0.86 L0.74,0.8602312138728324 L0.75,0.8660115606936416 L0.7569,0.87 M0.7224999999999999,0.85 L0.73,0.8543859649122807 L0.7395999999999999,0.86 M0.7055999999999999,0.84 L0.71,0.842603550295858 L0.72,0.8485207100591716 L0.7224999999999999,0.85 M0.6889,0.83 L0.69,0.8306586826347305 L0.7,0.8366467065868264 L0.7055999999999999,0.84 M0.6724000000000001,0.82 L0.6799999999999999,0.8246060606060605 L0.6889,0.83 M0.6561000000000001,0.81 L0.6600000000000001,0.8123926380368098 L0.6700000000000002,0.8185276073619632 L0.6724000000000001,0.8200000000000001 M0.6400000000000001,0.8 L0.6400000000000001,0.8 L0.6500000000000001,0.8062111801242237 L0.6561000000000001,0.81 M0.6241000000000001,0.79 L0.6300000000000001,0.7937106918238994 L0.6400000000000001,0.8 M0.6084,0.78 L0.6100000000000001,0.7810191082802548 L0.6200000000000001,0.7873885350318471 L0.6241000000000001,0.79 M0.5929,0.77 L0.6000000000000001,0.7745806451612904 L0.6084,0.78 M0.5776,0.76 L0.5800000000000001,0.7615686274509804 L0.5900000000000001,0.7681045751633988 L0.5929,0.77 M0.5625,0.75 L0.5700000000000001,0.7549668874172186 L0.5776,0.76 M0.5476,0.74 L0.55,0.7416107382550335 L0.56,0.7483221476510068 L0.5625,0.75 M0.5328999999999999,0.73 L0.54,0.7348299319727891 L0.5476,0.74 M0.5184,0.72 L0.52,0.721103448275862 L0.53,0.7280000000000001 L0.5328999999999999,0.73 M0.5041,0.71 L0.51,0.7141258741258741 L0.5184,0.72 M0.48999999999999994,0.7 L0.49,0.7 L0.5,0.7070921985815602 L0.5041,0.71 M0.4760999999999999,0.69 L0.48,0.6928057553956835 L0.48999999999999994,0.7 M0.4623999999999999,0.6799999999999999 L0.47,0.6855474452554744 L0.4760999999999999,0.69 M0.4488999999999999,0.6699999999999999 L0.44999999999999996,0.6708148148148148 L0.45999999999999996,0.6782222222222222 L0.4623999999999999,0.6799999999999999 M0.4355999999999999,0.6599999999999999 L0.43999999999999995,0.6633082706766917 L0.4488999999999999,0.6699999999999999 M0.4224999999999999,0.6499999999999999 L0.42999999999999994,0.6557251908396946 L0.4355999999999999,0.6599999999999999 M0.40960000000000024,0.6399999999999999 L0.41000000000000014,0.6403100775193796 L0.41999999999999993,0.6480620155038759 L0.4224999999999999,0.6499999999999999 M0.39690000000000003,0.63 L0.40000000000000013,0.6324409448818898 L0.40960000000000024,0.64 M0.3844,0.62 L0.3900000000000001,0.62448 L0.39690000000000003,0.63 M0.3721,0.61 L0.3800000000000001,0.6164227642276423 L0.3844,0.62 M0.36,0.6 L0.3600000000000001,0.6000000000000001 L0.3700000000000001,0.6082644628099174 L0.3721,0.61 M0.34809999999999997,0.59 L0.3500000000000001,0.5915966386554623 L0.36,0.6 M0.3364000000000001,0.58 L0.3400000000000001,0.583076923076923 L0.34809999999999997,0.59 M0.3249000000000001,0.5700000000000001 L0.33000000000000007,0.5744347826086957 L0.3364000000000001,0.5800000000000001 M0.31360000000000005,0.56 L0.32000000000000006,0.5656637168141594 L0.3249000000000001,0.5700000000000001 M0.30250000000000005,0.55 L0.31000000000000005,0.5567567567567568 L0.31360000000000005,0.56 M0.2916,0.54 L0.30000000000000004,0.5477064220183486 L0.30250000000000005,0.55 M0.28090000000000004,0.53 L0.29000000000000004,0.5385046728971963 L0.2916,0.54 M0.27040000000000003,0.52 L0.28,0.5291428571428571 L0.28090000000000004,0.53 M0.2601,0.51 L0.27,0.5196116504854369 L0.27040000000000003,0.52 M0.25,0.5 L0.25,0.5 L0.26,0.5099009900990099 L0.2601,0.51 M0.25,0.5 L0.24009999999999998,0.49 L0.2304,0.48 L0.22089999999999999,0.47 L0.21159999999999995,0.45999999999999996 L0.20999999999999996,0.4582417582417582 L0.20249999999999996,0.44999999999999996 L0.19999999999999996,0.447191011235955 L0.19359999999999997,0.43999999999999995 L0.18999999999999995,0.43586206896551716 L0.18489999999999995,0.42999999999999994 L0.17999999999999994,0.42423529411764693 L0.17640000000000003,0.41999999999999993 L0.16999999999999993,0.41228915662650595 L0.16810000000000003,0.41000000000000003 L0.16000000000000003,0.4 L0.15210000000000007,0.39 L0.15000000000000013,0.38727272727272744 L0.1444,0.38 L0.14000000000000012,0.3741333333333335 L0.1369,0.37 L0.13000000000000012,0.3605479452054796 L0.13000000000000012,0.3605479452054796 L0.12249999999999998,0.35 L0.1200000000000001,0.346376811594203 L0.11559999999999998,0.33999999999999997 L0.1100000000000001,0.33164179104477626 L0.10889999999999996,0.32999999999999996 L0.10239999999999996,0.31999999999999995 L0.10000000000000009,0.31619047619047636 L0.09609999999999995,0.30999999999999994 L0.09000000000000008,0.30000000000000016 L0.09000000000000007,0.30000000000000016 L0.08410000000000002,0.2899999999999999 L0.08000000000000007,0.2828070175438598 L0.0784,0.28 L0.0729,0.27 L0.07000000000000006,0.26452830188679255 L0.0676,0.26 L0.0625,0.25 L0.06000000000000005,0.24489795918367357 L0.05759999999999999,0.24 L0.05289999999999999,0.22999999999999998 L0.050000000000000044,0.22355555555555565 L0.048399999999999985,0.21999999999999997 L0.044099999999999986,0.20999999999999996 L0.040000000000000036,0.2000000000000001 L0.04000000000000003,0.2000000000000001 L0.03609999999999998,0.18999999999999995 L0.03239999999999998,0.17999999999999994 L0.030000000000000027,0.1731428571428572 L0.028899999999999967,0.16999999999999993 L0.025600000000000008,0.15999999999999992 L0.022500000000000006,0.15000000000000002 L0.020000000000000018,0.14137931034482765 L0.019599999999999996,0.14 L0.0169,0.13 L0.014399999999999996,0.12000000000000001 L0.012099999999999996,0.11 L0.010000000000000009,0.10000000000000006 L0.01,0.10000000000000006 L0.008099999999999987,0.08999999999999998 L0.006399999999999988,0.07999999999999997 L0.0048999999999999886,0.06999999999999997 L0.00359999999999999,0.05999999999999995 L0.0024999999999999914,0.04999999999999994 L0.0016000000000000014,0.03999999999999993 L0.0009000000000000008,0.030000000000000034 L0.00040000000000000034,0.020000000000000025 L0.00010000000000000009,0.010000000000000018 L0,8.673617379884035e-18 L-8.673617379884035e-18,8.673617379884035e-18 L-8.673617379884035e-18,0 L0.00010000000000000009,-0.01 L0.00040000000000000034,-0.02000000000000001 L0.0009000000000000008,-0.03000000000000002 L0.0016000000000000014,-0.04000000000000003 L0.0025000000000000022,-0.05000000000000004 L0.0036000000000000034,-0.060000000000000046 L0.004900000000000004,-0.07000000000000005 L0.0064000000000000055,-0.08000000000000006 L0.008100000000000008,-0.09000000000000007 L0.01,-0.10000000000000003 L0.010000000000000018,-0.10000000000000007 L0.01210000000000002,-0.11000000000000008 L0.014400000000000022,-0.12000000000000009 L0.016900000000000026,-0.13000000000000012 L0.019600000000000027,-0.14000000000000012 L0.02000000000000001,-0.14137931034482765 L0.022500000000000037,-0.15000000000000013 L0.02559999999999997,-0.16000000000000014 L0.028899999999999967,-0.16999999999999993 L0.03000000000000002,-0.1731428571428572 L0.03239999999999998,-0.17999999999999994 L0.03609999999999998,-0.18999999999999995 L0.03999999999999997,-0.19999999999999996 L0.04000000000000003,-0.2000000000000001 L0.044099999999999986,-0.20999999999999996 L0.048399999999999985,-0.21999999999999997 L0.05000000000000004,-0.22355555555555565 L0.05289999999999999,-0.22999999999999998 L0.05759999999999999,-0.24 L0.060000000000000046,-0.24489795918367357 L0.0625,-0.25 L0.0676,-0.26 L0.07000000000000005,-0.26452830188679255 L0.0729,-0.27 L0.0784,-0.28 L0.08000000000000006,-0.2828070175438598 L0.08410000000000002,-0.29000000000000004 L0.09000000000000001,-0.30000000000000004 L0.09000000000000007,-0.30000000000000016 L0.09610000000000002,-0.31000000000000005 L0.10000000000000007,-0.3161904761904763 L0.10240000000000005,-0.32000000000000006 L0.10890000000000004,-0.33000000000000007 L0.11000000000000008,-0.33164179104477626 L0.11560000000000004,-0.3400000000000001 L0.12000000000000009,-0.346376811594203 L0.12250000000000007,-0.3500000000000001 L0.12960000000000008,-0.3600000000000001 L0.13000000000000012,-0.3605479452054796 L0.13690000000000008,-0.3700000000000001 L0.14000000000000012,-0.3741333333333335 L0.14440000000000008,-0.3800000000000001 L0.15000000000000013,-0.38727272727272744 L0.15210000000000015,-0.3900000000000001 L0.16000000000000014,-0.3999999999999999 L0.16000000000000011,-0.40000000000000013 L0.16809999999999994,-0.41000000000000014 L0.16999999999999993,-0.41228915662650595 L0.17639999999999995,-0.41999999999999993 L0.17999999999999994,-0.424235294117647 L0.18489999999999995,-0.42999999999999994 L0.18999999999999995,-0.43586206896551716 L0.19359999999999997,-0.43999999999999995 L0.19999999999999996,-0.447191011235955 L0.20249999999999996,-0.44999999999999996 L0.20999999999999996,-0.4582417582417582 L0.21159999999999995,-0.45999999999999996 L0.21999999999999997,-0.4690322580645161 L0.22089999999999999,-0.47 L0.22999999999999998,-0.47957894736842105 L0.2304,-0.48 L0.24,-0.48989690721649487 L0.24009999999999998,-0.49 L0.25,-0.5 L0.25,-0.5 L0.26,-0.5099009900990099 L0.2601,-0.51 L0.27,-0.5196116504854369 L0.27040000000000003,-0.52 L0.28,-0.5291428571428571 L0.28090000000000004,-0.53 L0.29000000000000004,-0.5385046728971963 L0.2916,-0.54 L0.30000000000000004,-0.5477064220183486 L0.30250000000000005,-0.55 L0.31000000000000005,-0.5567567567567568 L0.31360000000000005,-0.56 L0.32000000000000006,-0.5656637168141594 L0.3249000000000001,-0.5700000000000001 L0.33000000000000007,-0.5744347826086957 L0.3364000000000001,-0.5800000000000001 L0.3400000000000001,-0.5830769230769232 L0.3481000000000001,-0.5900000000000001 L0.3500000000000001,-0.5915966386554623 L0.3600000000000001,-0.6000000000000001 L0.3600000000000001,-0.6000000000000001 L0.3700000000000001,-0.6082644628099174 L0.3721000000000001,-0.6100000000000001 L0.3800000000000001,-0.6164227642276424 L0.38440000000000013,-0.6200000000000001 L0.3900000000000001,-0.6244800000000001 L0.39690000000000014,-0.6300000000000001 L0.40000000000000013,-0.6324409448818898 L0.4096000000000004,-0.6400000000000001 L0.41000000000000014,-0.6403100775193797 L0.41999999999999993,-0.6480620155038759 L0.42250000000000015,-0.6500000000000001 L0.42999999999999994,-0.6557251908396946 L0.4356000000000002,-0.6600000000000001 L0.43999999999999995,-0.6633082706766917 L0.4488999999999999,-0.6700000000000002 L0.44999999999999996,-0.6708148148148148 L0.45999999999999996,-0.6782222222222222 L0.4623999999999999,-0.6799999999999999 L0.47,-0.6855474452554744 L0.4760999999999999,-0.69 L0.48,-0.6928057553956835 L0.48999999999999994,-0.7 L0.49,-0.7 L0.5,-0.7070921985815602 L0.5041,-0.71 L0.51,-0.7141258741258741 L0.5184,-0.72 L0.52,-0.721103448275862 L0.53,-0.7280000000000001 L0.5328999999999999,-0.73 L0.54,-0.7348299319727891 L0.5476,-0.74 L0.55,-0.7416107382550335 L0.56,-0.7483221476510068 L0.5625,-0.75 L0.5700000000000001,-0.7549668874172186 L0.5776,-0.76 L0.5800000000000001,-0.7615686274509804 L0.5900000000000001,-0.7681045751633988 L0.5929,-0.77 L0.6000000000000001,-0.7745806451612904 L0.6084,-0.78 L0.6100000000000001,-0.7810191082802548 L0.6200000000000001,-0.7873885350318471 L0.6241000000000001,-0.79 L0.6300000000000001,-0.7937106918238994 L0.6400000000000001,-0.8 L0.6400000000000001,-0.8 L0.6500000000000001,-0.8062111801242237 L0.6561000000000001,-0.81 L0.6600000000000001,-0.8123926380368098 L0.6700000000000002,-0.8185276073619632 L0.6724000000000001,-0.8200000000000001 L0.6799999999999999,-0.8246060606060606 L0.6889000000000001,-0.8300000000000001 L0.69,-0.8306586826347305 L0.7,-0.8366467065868264 L0.7056000000000001,-0.8400000000000001 L0.71,-0.842603550295858 L0.72,-0.8485207100591716 L0.7225000000000001,-0.8500000000000001 L0.73,-0.8543859649122807 L0.7396000000000001,-0.8600000000000001 L0.74,-0.8602312138728324 L0.75,-0.8660115606936416 L0.7569000000000002,-0.8700000000000001 L0.76,-0.8717714285714285 L0.77,-0.8774857142857143 L0.7744000000000002,-0.8800000000000001 L0.78,-0.8831638418079096 L0.79,-0.8888135593220339 L0.7921000000000002,-0.8900000000000001 L0.8,-0.894413407821229 L0.81,-0.9 L0.8100000000000003,-0.9000000000000001 L0.8200000000000001,-0.905524861878453 L0.8281000000000003,-0.9100000000000001 L0.8300000000000001,-0.9110382513661203 L0.8400000000000001,-0.9165027322404373 L0.8463999999999998,-0.9200000000000002 L0.8500000000000001,-0.921945945945946 L0.8600000000000001,-0.9273513513513514 L0.8648999999999999,-0.9299999999999999 L0.8700000000000001,-0.9327272727272727 L0.8800000000000001,-0.9380748663101605 L0.8835999999999999,-0.94 L0.8900000000000001,-0.9433862433862434 L0.9000000000000001,-0.9486772486772487 L0.9025,-0.95 L0.9100000000000001,-0.9539267015706807 L0.9200000000000002,-0.9591623036649214 L0.9216,-0.96 L0.9299999999999999,-0.9643523316062176 L0.94,-0.9695336787564767 L0.9409,-0.97 L0.95,-0.9746666666666667 L0.96,-0.9797948717948718 L0.9603999999999999,-0.98 L0.97,-0.9848730964467005 L0.98,-0.9899492385786802 L0.9801,-0.99 L0.99,-0.9949748743718593 L1,-1 M0.24,0.48989690721649487 L0.24009999999999998,0.49 Z M0.22999999999999998,0.47957894736842105 L0.2304,0.48 Z M0.21999999999999997,0.4690322580645161 L0.22089999999999999,0.47 Z M0.15999999999999992,0.39999999999999986 L0.16000000000000003,0.4 Z" fill="none" stroke="black" stroke-width="0.005"/>
</svg>