<svg viewBox="-1 -1 2 2" xmlns="http://www.w3.org/2000/svg">
    <circle cx="0" cy="0" r="0.01" fill="black" />
  <path d="M-0.47441978222340514,0.72 L-0.47,0.7207456434162505 L-0.45999999999999996,0.7221001849608407 L-0.44999999999999996,0.7231222088725305 L-0.43999999999999995,0.7238117151513199 L-0.42999999999999994,0.724168703797209 L-0.41999999999999993,0.7241931748101977 L-0.41000000000000003,0.723885128190286 L-0.4,0.7232445639374739 L-0.39,0.7222714820517615 L-0.38,0.7209658825331486 L-0.3741037029478843,0.72 L-0.37,0.7193046435536804 L-0.36,0.7172662278528976 L-0.35,0.7148838574178068 L-0.33999999999999997,0.7121575322484079 L-0.3329728483523504,0.71 L-0.32999999999999996,0.7090547396680689 L-0.31999999999999995,0.705518887728615 L-0.30999999999999994,0.7016268291591756 L-0.3061706035692031,0.7 L-0.29999999999999993,0.697281737652737 L-0.2899999999999999,0.6925071933912151 L-0.2851258975558581,0.69 L-0.28,0.6872621596651339 L-0.27,0.6815374377990472 L-0.26748301497271726,0.6799999999999999 L-0.26,0.6752468902057042 L-0.25222762449168984,0.6699999999999999 L-0.25,0.668433732833282 L-0.24,0.6609872304456755 L-0.2387442844151395,0.6599999999999999 L-0.22999999999999998,0.6528273900075086 L-0.2267260506587356,0.6499999999999999 L-0.21999999999999997,0.6439282190588485 L-0.21585643585353328,0.6399999999999999 L-0.20999999999999996,0.6341844677964029 L-0.2059782844348361,0.63 L-0.19999999999999996,0.6234699136288748 L-0.1969618599735461,0.62 L-0.18999999999999995,0.6116318633172095 L-0.18869911528622563,0.61 L-0.1811452885766382,0.6 L-0.17999999999999994,0.5983950279087217 L-0.17424974118575656,0.59 L-0.16999999999999993,0.5834096392110618 L-0.1678861261544294,0.58 L-0.1620721338014991,0.5700000000000001 L-0.15999999999999992,0.5661827101623925 L-0.15676849021575384,0.56 L-0.15191318471905432,0.55 L-0.15000000000000002,0.5457332345379363 L-0.14752131588419734,0.54 L-0.14355603915529963,0.53 L-0.14,0.5201418098754849 L-0.13995061484844484,0.52 L-0.13681382942977488,0.51 L-0.1340227488905436,0.5 L-0.13157737323075103,0.49 L-0.13,0.48248752116041177 L-0.1294951551820883,0.48 L-0.1277997985859408,0.47 L-0.12643859503539748,0.45999999999999996 L-0.12541154453045836,0.44999999999999996 L-0.12471864707112353,0.43999999999999995 L-0.12435990265739283,0.42999999999999994 L-0.12433531128926636,0.41999999999999993 L-0.1246448729667441,0.41000000000000003 L-0.12528858768982612,0.4 L-0.12626645545851228,0.39 L-0.12757847627280272,0.38 L-0.12922465013269732,0.37 L-0.13,0.36608473800386315 L-0.13124663368236775,0.36 L-0.13364112633471675,0.35 L-0.13638132386650442,0.33999999999999997 L-0.13946722627773075,0.32999999999999996 L-0.14,0.3284474513627519 L-0.1430026361657642,0.31999999999999995 L-0.14691520784803952,0.30999999999999994 L-0.15000000000000002,0.3027767716061413 L-0.1512299044622492,0.29999999999999993 L-0.1560305475384043,0.2899999999999999 L-0.16000000000000003,0.28232514940678094 L-0.16124895735980754,0.28 L-0.16700617892365566,0.27 L-0.16999999999999993,0.2651263945500948 L-0.1732754438218462,0.26 L-0.17999999999999994,0.25009718810374787 L-0.17999999999999994,0.25009718810374787 L-0.1875610648549497,0.24 L-0.18999999999999995,0.23691674415486944 L-0.1957099708137646,0.22999999999999998 L-0.19999999999999996,0.2250640898156549 L-0.20460217283624244,0.21999999999999997 L-0.20999999999999996,0.21434422950191934 L-0.21434422950191934,0.20999999999999996 L-0.21999999999999997,0.20460217283624244 L-0.2250640898156549,0.19999999999999996 L-0.22999999999999998,0.1957099708137646 L-0.23691674415486944,0.18999999999999995 L-0.24,0.1875610648549497 L-0.25,0.18006875438489073 L-0.25,0.18006875438489073 L-0.26,0.1732754438218462 L-0.2651263945500948,0.16999999999999993 L-0.27,0.16700617892365566 L-0.28,0.16124895735980754 L-0.28232514940678094,0.15999999999999992 L-0.29000000000000004,0.1560305475384043 L-0.29999999999999993,0.1512299044622492 L-0.3027767716061413,0.15000000000000002 L-0.30999999999999994,0.14691520784803952 L-0.31999999999999995,0.1430026361657642 L-0.3284474513627519,0.14 L-0.32999999999999996,0.13946722627773075 L-0.33999999999999997,0.13638132386650442 L-0.35,0.13364112633471675 L-0.36,0.13124663368236775 L-0.36608473800386315,0.13 L-0.37,0.12922465013269732 L-0.38,0.12757847627280272 L-0.39,0.12626645545851228 L-0.4,0.12528858768982612 L-0.41000000000000003,0.1246448729667441 L-0.42000000000000004,0.12433531128926636 L-0.42999999999999994,0.12435990265739283 L-0.43999999999999995,0.12471864707112353 L-0.44999999999999996,0.12541154453045836 L-0.45999999999999996,0.12643859503539748 L-0.47,0.1277997985859408 L-0.48,0.1294951551820883 L-0.48248752116041177,0.13 L-0.49,0.13157737323075103 L-0.5,0.1340227488905436 L-0.51,0.13681382942977488 L-0.52,0.13995061484844484 L-0.53,0.14355603915529963 L-0.54,0.14752131588419734 L-0.5457332345379363,0.15000000000000002 L-0.55,0.15191318471905432 L-0.56,0.15676849021575384 L-0.5661827101623925,0.16000000000000003 L-0.5700000000000001,0.1620721338014991 L-0.5800000000000001,0.1678861261544294 L-0.5834096392110618,0.16999999999999993 L-0.59,0.17424974118575656 L-0.5983950279087217,0.17999999999999994 L-0.6,0.1811452885766382 L-0.61,0.18869911528622563 L-0.6116318633172095,0.18999999999999995 L-0.62,0.1969618599735461 L-0.6234699136288748,0.19999999999999996 L-0.63,0.2059782844348361 L-0.6341844677964029,0.20999999999999996 L-0.64,0.21585643585353328 L-0.6439282190588485,0.21999999999999997 L-0.6499999999999999,0.2267260506587356 L-0.6528273900075086,0.22999999999999998 L-0.6599999999999999,0.2387442844151395 L-0.6609872304456755,0.24 L-0.668433732833282,0.25 L-0.6699999999999999,0.25222762449168984 L-0.6752468902057042,0.26 L-0.6799999999999999,0.26748301497271726 L-0.6815374377990472,0.27 L-0.6872621596651339,0.28 L-0.69,0.2851258975558581 L-0.6925071933912151,0.29000000000000004 L-0.697281737652737,0.29999999999999993 L-0.7,0.3061706035692031 L-0.7016268291591756,0.30999999999999994 L-0.705518887728615,0.31999999999999995 L-0.7090547396680689,0.32999999999999996 L-0.71,0.3329728483523504 L-0.7121575322484079,0.33999999999999997 L-0.7148838574178068,0.35 L-0.7172662278528976,0.36 L-0.7193046435536804,0.37 L-0.72,0.3741037029478843 L-0.7209658825331486,0.38 L-0.7222714820517615,0.39 L-0.7232445639374739,0.4 L-0.723885128190286,0.41000000000000003 L-0.7241931748101977,0.42000000000000004 L-0.724168703797209,0.42999999999999994 L-0.7238117151513199,0.43999999999999995 L-0.7231222088725305,0.44999999999999996 L-0.7221001849608407,0.45999999999999996 L-0.7207456434162505,0.47 L-0.72,0.47441978222340514 L-0.7190262037979568,0.48 L-0.7169371626870427,0.49 L-0.7145041668418204,0.5 L-0.71172721626229,0.51 L-0.71,0.5155343436874913 L-0.7085566668204215,0.52 L-0.7049683861601627,0.53 L-0.7010238988699182,0.54 L-0.7,0.5423807759606002 L-0.6966021720659213,0.55 L-0.6917732625574542,0.56 L-0.69,0.5634112531570064 L-0.6864436300804831,0.5700000000000001 L-0.6806624578982137,0.5800000000000001 L-0.6799999999999999,0.5810745984152127 L-0.6742783121330841,0.59 L-0.6699999999999999,0.5962829573654299 L-0.6673637805854109,0.6 L-0.6599999999999999,0.609808379354321 L-0.6515834866382082,0.62 L-0.6499999999999999,0.6218201388351589 L-0.6425612833436315,0.63 L-0.6399999999999999,0.6326828232883375 L-0.6326828232883375,0.64 L-0.63,0.6425612833436315 L-0.6218201388351589,0.6499999999999999 L-0.62,0.6515834866382082 L-0.61,0.6598499031526754 L-0.6,0.6673637805854109 L-0.5962829573654299,0.6699999999999999 L-0.59,0.6742783121330841 L-0.5810745984152127,0.6799999999999999 L-0.58,0.6806624578982137 L-0.5700000000000001,0.6864436300804831 L-0.5634112531570064,0.69 L-0.56,0.6917732625574542 L-0.55,0.6966021720659213 L-0.5423807759606002,0.7 L-0.54,0.7010238988699182 L-0.53,0.7049683861601627 L-0.52,0.7085566668204215 L-0.5155343436874913,0.71 L-0.51,0.71172721626229 L-0.5,0.7145041668418204 L-0.49,0.7169371626870427 L-0.48,0.7190262037979568 L-0.47441978222340514,0.72 Z M-0.61,0.6598499031526754 L-0.609808379354321,0.6599999999999999 Z M-0.6599999999999999,0.609808379354321 L-0.6598499031526754,0.61 Z M-0.5201418098754849,0.14 L-0.52,0.13995061484844484 Z" fill="none" stroke="black" stroke-width="0.005"/>
</svg>