<svg xmlns="http://www.w3.org/2000/svg" viewBox="-1.5 -1.5 3 3" fill="none" stroke="black" stroke-width="0.2%" vector-effect="non-scaling-stroke">\n<path d="M0.8809752605064406,0.47316232983576484 C0.6461811331881293,0.7352963238610263 0.4955884871385118,0.9477941766608793 0.14612800778340984,0.9892656899646585 C-0.09232268395440785,1.0175633419708292 -0.15875931317438854,1.0040389745636829 -0.38479572495576375,0.9230017605919114 C-0.7952031558613866,0.7758649584643332 -1.0923902980079174,0.18846140227851238 -0.9729880632987772,-0.23085542808886872 C-0.8585450634628657,-0.6327564148319218 -0.5853062700839528,-0.9311790037931661 -0.1709457534549041,-0.9852804419939204 C0.04230478584234029,-1.0131237340308301 0.17680986893977332,-1.005307380833538 0.3768257932638635,-0.9262841472955585 C0.8399021839977363,-0.7433297455670556 1.2131764446721296,0.10227901933789563 0.8809752605064406,0.47316232983576484" />
<path d="M0.9009752605064406,0.47316232983576484 C0.9009752605064406,0.48420063032564487 0.8920135609963206,0.49316232983576486 0.8809752605064406,0.49316232983576486 C0.8699369600165606,0.49316232983576486 0.8609752605064406,0.48420063032564487 0.8609752605064406,0.47316232983576484 C0.8609752605064406,0.46212402934588487 0.8699369600165606,0.4531623298357648 0.8809752605064406,0.4531623298357648 C0.8920135609963206,0.4531623298357648 0.9009752605064406,0.4621240293458848 0.9009752605064406,0.47316232983576484 Z" />
<path d="M0.16612800778340983,0.9892656899646585 C0.16612800778340983,1.0003039904545385 0.15716630827328984,1.0092656899646584 0.14612800778340984,1.0092656899646584 C0.13508970729352984,1.0092656899646584 0.12612800778340985,1.0003039904545385 0.12612800778340985,0.9892656899646585 C0.12612800778340985,0.9782273894747785 0.13508970729352984,0.9692656899646585 0.14612800778340984,0.9692656899646585 C0.15716630827328984,0.9692656899646585 0.16612800778340983,0.9782273894747785 0.16612800778340983,0.9892656899646585 Z" />
<path d="M-0.36479572495576373,0.9230017605919114 C-0.36479572495576373,0.9340400610817914 -0.3737574244658837,0.9430017605919114 -0.38479572495576375,0.9430017605919114 C-0.3958340254456437,0.9430017605919114 -0.40479572495576377,0.9340400610817914 -0.40479572495576377,0.9230017605919114 C-0.40479572495576377,0.9119634601020314 -0.3958340254456438,0.9030017605919114 -0.38479572495576375,0.9030017605919114 C-0.3737574244658838,0.9030017605919114 -0.36479572495576373,0.9119634601020314 -0.36479572495576373,0.9230017605919114 Z" />
<path d="M-0.9529880632987772,-0.23085542808886872 C-0.9529880632987772,-0.21981712759898872 -0.9619497628088972,-0.21085542808886873 -0.9729880632987772,-0.21085542808886873 C-0.9840263637886572,-0.21085542808886873 -0.9929880632987772,-0.21981712759898872 -0.9929880632987772,-0.23085542808886872 C-0.9929880632987772,-0.24189372857874872 -0.9840263637886572,-0.25085542808886874 -0.9729880632987772,-0.25085542808886874 C-0.9619497628088972,-0.25085542808886874 -0.9529880632987772,-0.24189372857874872 -0.9529880632987772,-0.23085542808886872 Z" />
<path d="M-0.1509457534549041,-0.9852804419939204 C-0.1509457534549041,-0.9742421415040404 -0.1599074529650241,-0.9652804419939204 -0.1709457534549041,-0.9652804419939204 C-0.1819840539447841,-0.9652804419939204 -0.19094575345490408,-0.9742421415040404 -0.19094575345490408,-0.9852804419939204 C-0.19094575345490408,-0.9963187424838004 -0.1819840539447841,-1.0052804419939203 -0.1709457534549041,-1.0052804419939203 C-0.1599074529650241,-1.0052804419939203 -0.1509457534549041,-0.9963187424838004 -0.1509457534549041,-0.9852804419939204 Z" />
<path d="M0.3968257932638635,-0.9262841472955585 C0.3968257932638635,-0.9152458468056786 0.38786409375374353,-0.9062841472955585 0.3768257932638635,-0.9062841472955585 C0.36578749277398354,-0.9062841472955585 0.3568257932638635,-0.9152458468056786 0.3568257932638635,-0.9262841472955585 C0.3568257932638635,-0.9373224477854385 0.3657874927739835,-0.9462841472955585 0.3768257932638635,-0.9462841472955585 C0.3878640937537435,-0.9462841472955585 0.3968257932638635,-0.9373224477854385 0.3968257932638635,-0.9262841472955585 Z" />
</svg>