<?xml version="1.0" encoding="UTF-8"?>
<svg width="15px" height="15px" version="1.1" viewBox="0 0 128 128" xmlns="http://www.w3.org/2000/svg">
 <path stroke="white" stroke-width="8px" d="m125.61 5.3438c-23.656 4.0508-44.129 15.5-60.844 28.812-18.418-16.473-34.457-25.453-34.457-25.453-7.6914-4.793-17.32-3.4688-24.734 0-7.4258 3.4609-7.4258 14.344 0 15.828 16.273 6.3672 30.578 14.805 43.078 24.027-22.113 22.004-34.348 43.852-34.348 43.852-4.7891 7.6914-3.4609 17.32 0 24.734 3.4688 7.4258 14.348 7.4258 15.832 0 8.6602-22.117 21.09-40.629 34.203-55.84 37.977 33.887 54.176 70.949 53.035 58.715-5.1055-29.832-21.965-54.594-39.5-73.133 30.309-29.766 58.66-42.559 47.734-41.543z"/>
</svg>
