<?xml version="1.0" encoding="UTF-8" standalone="no"?>
<svg version="1.1" xmlns="http://www.w3.org/2000/svg" viewBox="-3.0278640237988697 -3.000000001 6.02786402479887 6.019073459238998" fill="none" stroke="black" stroke-width="0.2%" vector-effect="non-scaling-stroke" >
    <g stroke="red"><g>
  <path d="M -1 0 A 1 1 0 0 1 1 0 A 1 1 0 0 1 -1 0 Z" />
</g></g>
<path d="M -0.7036423839074811 -0.7105542875593651 C -0.9592533684051257 -0.45260827941543663 -1.0559625300797906 -0.14540456370072663 -0.9778640227988699 0.20924137476993265 C -0.9179300796650505 0.4814018839648778 -0.7876878214434282 0.6649868765742433 -0.5613521179070416 0.827577065729397 C -0.06591495317849039 1.1834785919539512 0.5709647050640292 1.0267468781508722 0.8691396064065068 0.49456682518699374 C 1.406124412952957 -0.46383913554963946 0.06963633648394518 -1.4908969614065897 -0.7036423839074811 -0.7105542875593651 Z" />
<g>
  <path d="M -0.7536423839074812 -0.7105542875593651 A 0.050000000000000044 0.050000000000000044 0 0 1 -0.6536423839074811 -0.7105542875593651 A 0.050000000000000044 0.050000000000000044 0 0 1 -0.7536423839074812 -0.7105542875593651 Z" />
</g>
<g>
  <path d="M -1.0278640227988698 0.20924137476993265 A 0.04999999999999993 0.04999999999999993 0 0 1 -0.9278640227988698 0.20924137476993265 A 0.050000000000000044 0.050000000000000044 0 0 1 -1.0278640227988698 0.20924137476993265 Z" />
</g>
<g>
  <path d="M -0.6113521179070417 0.827577065729397 A 0.050000000000000044 0.050000000000000044 0 0 1 -0.5113521179070416 0.827577065729397 A 0.050000000000000044 0.050000000000000044 0 0 1 -0.6113521179070417 0.827577065729397 Z" />
</g>
<g>
  <path d="M 0.8191396064065067 0.49456682518699374 A 0.050000000000000044 0.050000000000000044 0 0 1 0.9191396064065068 0.49456682518699374 A 0.050000000000000044 0.050000000000000044 0 0 1 0.8191396064065067 0.49456682518699374 Z" />
</g>
</svg>